<svg viewBox="0 0 1280 320" xmlns="http://www.w3.org/2000/svg" role="img" aria-label="PyHerdr banner">
  <defs>
    <linearGradient id="blue3" x1="0" y1="0" x2="1" y2="1">
      <stop offset="0%" stop-color="#4B8BBE"/>
      <stop offset="100%" stop-color="#306998"/>
    </linearGradient>
    <linearGradient id="yellow3" x1="0" y1="1" x2="1" y2="0">
      <stop offset="0%" stop-color="#FFD43B"/>
      <stop offset="100%" stop-color="#FFE873"/>
    </linearGradient>
    <linearGradient id="wm" x1="0" y1="0" x2="1" y2="0">
      <stop offset="0%" stop-color="#4B8BBE"/>
      <stop offset="55%" stop-color="#6FA8D6"/>
      <stop offset="100%" stop-color="#FFD43B"/>
    </linearGradient>
  </defs>

  <!-- matte black, dead flat -->
  <rect width="1280" height="320" rx="24" fill="#0E1318"/>
  <rect x="2" y="2" width="1276" height="316" rx="22" fill="none" stroke="#1C242E" stroke-width="2"/>

  <!-- mini mark -->
  <g transform="translate(84,70)">
    <rect x="0" y="0" width="84" height="84" fill="url(#blue3)" rx="6"/>
    <circle cx="30" cy="30" r="8" fill="#F4F7FA"/>
    <rect x="96" y="0" width="62" height="84" fill="#1B232D" rx="6"/>
    <path d="M0 96 H84 L46 158 H0 Z" fill="url(#yellow3)"/>
    <g stroke-linecap="round" stroke-linejoin="round" fill="none">
      <path d="M100 104 L126 130 L100 156" stroke="#FFD43B" stroke-width="13"/>
      <line x1="134" y1="158" x2="158" y2="158" stroke="#4B8BBE" stroke-width="13"/>
    </g>
  </g>

  <!-- wordmark -->
  <text x="320" y="166" font-family="'JetBrains Mono','Fira Code','Cascadia Code',Consolas,monospace"
        font-size="86" font-weight="700" letter-spacing="3" fill="url(#wm)">PyHerdr</text>

  <!-- tagline -->
  <text x="324" y="216" font-family="'JetBrains Mono','Fira Code',Consolas,monospace"
        font-size="25" letter-spacing="2" fill="#7E8C9A">herd your terminals · multi-agent multiplexer</text>

  <!-- install pill -->
  <g transform="translate(324,242)" font-family="'JetBrains Mono',Consolas,monospace" font-size="21">
    <rect x="0" y="0" width="317" height="40" rx="20" fill="#161D25" stroke="#2A3542" stroke-width="1.5"/>
    <text x="22" y="27"><tspan fill="#FFD43B">$</tspan><tspan fill="#C7D2DC" dx="12">pip install pyherdr</tspan></text>
    <rect x="350" y="0" width="170" height="40" rx="20" fill="none" stroke="#306998" stroke-width="2"/>
    <text x="374" y="27" fill="#6FA8D6">python 3.11+</text>
  </g>
</svg>
